<?xml version="1.0" encoding="UTF-8"?>
<svg version="1.1" xmlns="http://www.w3.org/2000/svg" width="1365" height="1365">
<path d="M0 0 C450.45 0 900.9 0 1365 0 C1365 450.45 1365 900.9 1365 1365 C914.55 1365 464.1 1365 0 1365 C0 914.55 0 464.1 0 0 Z " fill="#FEFEFE" transform="translate(0,0)"/>
<path d="M0 0 C1.09237473 0.00178253 1.09237473 0.00178253 2.20681763 0.00360107 C14.33225803 0.0791639 25.96848144 0.98176439 37.3125 5.5625 C38.45235352 6.01604858 38.45235352 6.01604858 39.61523438 6.47875977 C59.16727516 14.54866484 77.4404859 28.20362393 88.35546875 46.48046875 C90.40909103 51.89838692 90.19459687 56.37447913 87.9609375 61.60546875 C87.2822984 62.97453798 86.58667847 64.3353109 85.875 65.6875 C85.54371094 66.37263672 85.21242188 67.05777344 84.87109375 67.76367188 C82.44842697 72.51301298 79.90051892 75.45889571 75.5 78.5 C69.6464298 78.94177888 66.30790458 76.26986053 62 72.71875 C59.72397035 70.69877369 57.50845834 68.6263507 55.30175781 66.53125 C45.03367163 56.83548337 34.10096605 49.72274382 20.5 45.5 C19.32566406 45.13390625 18.15132812 44.7678125 16.94140625 44.390625 C11.14031446 42.99000476 5.24672261 43.17104348 -0.6875 43.1875 C-1.83025391 43.17138672 -2.97300781 43.15527344 -4.15039062 43.13867188 C-32.77942378 43.12248814 -56.51780758 59.30957313 -76.51171875 78.35546875 C-93.40495643 94.40798105 -112.4582839 102.68651178 -134.5 109.5 C-135.66402344 109.86480469 -136.82804688 110.22960937 -138.02734375 110.60546875 C-164.75883014 117.4913072 -196.68751887 113.03038803 -220.75 99.8125 C-239.28903374 88.75672503 -251.72068281 71.83795157 -258.5 51.5 C-259.07617039 47.82691377 -259.1585077 45.47805166 -257.04296875 42.3359375 C-254.3730183 39.24441592 -251.91105353 36.77403569 -248.5 34.5 C-240.97356508 34.5 -235.2687861 40.10615246 -229.6328125 44.5078125 C-212.56792318 57.83643988 -212.56792318 57.83643988 -192.5 65.5 C-191.51386719 65.77585937 -190.52773438 66.05171875 -189.51171875 66.3359375 C-178.86342319 69.06370299 -168.42032559 68.97247458 -157.5 68.5 C-156.33114258 68.45214355 -156.33114258 68.45214355 -155.13867188 68.40332031 C-129.01672637 67.07566279 -107.57973663 55.30990758 -87.5 39.5 C-60.43927035 18.29674918 -35.58519465 -0.06410454 0 0 Z " fill="#010101" transform="translate(791.5,581.5)"/>
<path d="M0 0 C0.70910522 -0.00358521 1.41821045 -0.00717041 2.14880371 -0.01086426 C14.95912441 -0.04566485 26.62038333 1.21985633 38.625 5.9375 C39.53169434 6.29086426 40.43838867 6.64422852 41.37255859 7.00830078 C59.65432157 14.35292496 72.55196496 25.93495996 83.1875 42.3125 C83.68636719 43.03179687 84.18523437 43.75109375 84.69921875 44.4921875 C88.31916375 50.41111511 88.07668973 57.6075288 87.1875 64.3125 C85.15887216 68.40385027 83.46030881 70.54764419 79.1875 72.3125 C72.79526938 73.57828824 68.50671834 71.90684845 63.1796875 68.421875 C60.1190613 66.2642534 57.07518162 64.08446933 54.03271484 61.90136719 C36.7189767 49.51102105 20.92604121 43.57039391 -0.35546875 43.79101562 C-2.81089959 43.81248601 -5.26340633 43.79107912 -7.71875 43.765625 C-20.99351362 43.7409846 -33.08617989 45.90577166 -45.125 51.8125 C-46.16901978 52.31571777 -46.16901978 52.31571777 -47.23413086 52.82910156 C-61.11729916 59.76371392 -73.44687982 69.416096 -85.76318359 78.76074219 C-102.11179256 91.14003199 -118.82424438 103.65949692 -138.8125 109.3125 C-139.81023438 109.62832031 -140.80796875 109.94414063 -141.8359375 110.26953125 C-154.15843544 113.60116958 -167.16383824 112.57937828 -179.8125 112.3125 C-179.00167969 111.49265625 -178.19085937 110.6728125 -177.35546875 109.828125 C-174.2160155 106.06122374 -174.10319053 102.82568781 -174.125 98.0625 C-174.03734134 90.53734134 -174.03734134 90.53734134 -171.8125 88.3125 C-171.50574768 85.41282243 -171.30076629 82.59466822 -171.1875 79.6875 C-171.14882813 78.88570312 -171.11015625 78.08390625 -171.0703125 77.2578125 C-170.97596069 75.27642444 -170.89313785 73.29449355 -170.8125 71.3125 C-169.54277344 71.21453125 -168.27304687 71.1165625 -166.96484375 71.015625 C-141.73677707 68.90240805 -122.42274582 61.23796587 -102.8125 45.3125 C-101.84957031 44.53777344 -100.88664063 43.76304687 -99.89453125 42.96484375 C-97.18806746 40.76209404 -94.49932627 38.53915161 -91.8125 36.3125 C-74.48271621 21.95410607 -56.03500266 8.70529959 -33.8125 3.3125 C-32.68199219 3.01472656 -31.55148437 2.71695312 -30.38671875 2.41015625 C-20.31129159 0.17688997 -10.27609116 0.02103077 0 0 Z " fill="#010101" transform="translate(793.8125,441.6875)"/>
<path d="M0 0 C1.55724967 -0.01969195 3.11489852 -0.01625339 4.67211914 0.00561523 C5.50505997 0.00416 6.33800079 0.00270477 7.19618225 0.00120544 C8.96399418 0.00286647 10.73182027 0.01445052 12.49951172 0.03515625 C15.16642124 0.06377064 17.83129846 0.05583813 20.49829102 0.04272461 C32.70493507 0.05674446 44.6301552 0.13596356 54.35961914 8.47045898 C60.44100213 14.93736932 62.63528448 22.24441406 62.56274414 30.97827148 C62.11545942 34.83088384 60.71938138 38.19304144 59.28149414 41.77514648 C58.30789484 44.39897781 57.71730821 46.8803784 57.20727539 49.62670898 C56.74321289 51.54483398 56.74321289 51.54483398 56.26977539 53.50170898 C53.26977539 54.50170898 53.26977539 54.50170898 50.70727539 55.00170898 C48.27562597 55.39113297 48.27562597 55.39113297 46.26977539 56.50170898 C46.67252398 62.43054284 49.32913931 66.17944584 52.58227539 70.93920898 C62.42823961 85.61034773 62.42823961 85.61034773 61.76977539 89.31420898 C60.00184559 91.89243995 59.27099949 92.63293359 56.26977539 93.50170898 C49.26092583 94.28047005 49.26092583 94.28047005 45.64477539 91.43920898 C44.86102539 90.46983398 44.07727539 89.50045898 43.26977539 88.50170898 C42.35037837 87.45510192 41.42971866 86.40960325 40.50805664 85.36499023 C37.06688159 81.36062776 34.07386299 77.09690466 31.08227539 72.75170898 C30.04991814 71.25498286 29.01485977 69.76011537 27.97680664 68.26733398 C27.52797119 67.61539063 27.07913574 66.96344727 26.61669922 66.29174805 C24.33799699 63.26339119 22.92585286 61.72040147 19.26977539 60.50170898 C17.54182187 60.43367932 15.81142174 60.41675254 14.08227539 60.43920898 C13.1812207 60.44823242 12.28016602 60.45725586 11.35180664 60.46655273 C10.66473633 60.4781543 9.97766602 60.48975586 9.26977539 60.50170898 C9.26042969 61.36449463 9.25108398 62.22728027 9.24145508 63.11621094 C9.19741817 66.32032738 9.13579645 69.52348626 9.06225586 72.72705078 C9.03404742 74.11299294 9.01283206 75.49909594 8.9987793 76.88525391 C8.97735118 78.87878303 8.92860525 80.87195944 8.87915039 82.86499023 C8.84772949 84.66383667 8.84772949 84.66383667 8.81567383 86.49902344 C8.26977539 89.50170898 8.26977539 89.50170898 6.45043945 91.38916016 C3.212446 93.04114584 0.84469587 92.94857404 -2.73022461 92.50170898 C-5.63739534 90.28307869 -6.57004104 88.9822597 -7.73022461 85.50170898 C-7.82503229 83.27015124 -7.85816791 81.0358164 -7.85961914 78.80224609 C-7.86137146 78.12536743 -7.86312378 77.44848877 -7.8649292 76.75109863 C-7.86933402 74.51039065 -7.86641223 72.26976155 -7.86303711 70.02905273 C-7.86371109 68.46545903 -7.8646819 66.90186544 -7.86593628 65.33827209 C-7.86741185 62.05558274 -7.86526523 58.77292057 -7.8605957 55.49023438 C-7.85493145 51.30657981 -7.85815719 47.12298986 -7.86416817 42.93933773 C-7.86780582 39.70574978 -7.86662 36.47217677 -7.86404037 33.23858833 C-7.86337822 31.69780024 -7.86417435 30.15701074 -7.86651993 28.61622429 C-7.89922796 1.06243298 -7.89922796 1.06243298 0 0 Z " fill="#030303" transform="translate(833.730224609375,763.498291015625)"/>
<path d="M0 0 C0.81726563 -0.0721875 1.63453125 -0.144375 2.4765625 -0.21875 C9.83332774 1.60556914 14.37212964 8.41942866 18.14331055 14.56933594 C18.65289307 15.43333008 19.16247559 16.29732422 19.6875 17.1875 C20.23510986 18.09145508 20.78271973 18.99541016 21.34692383 19.92675781 C25.76354917 27.28546355 29.93069024 34.78261555 33.94848633 42.3659668 C34.37154053 43.157854 34.79459473 43.94974121 35.23046875 44.765625 C35.59809326 45.46461914 35.96571777 46.16361328 36.34448242 46.88378906 C37.28962213 48.6713666 37.28962213 48.6713666 39.375 49.5 C39.48585938 48.62472656 39.59671875 47.74945312 39.7109375 46.84765625 C40.38533167 43.44791622 41.40614754 41.00161742 43 37.9375 C43.53753906 36.89940186 44.07507813 35.86130371 44.62890625 34.79174805 C45.20511719 33.70547119 45.78132812 32.61919434 46.375 31.5 C46.96152344 30.3860083 47.54804687 29.2720166 48.15234375 28.12426758 C60.45782692 4.99931623 60.45782692 4.99931623 67.375 0.5 C69.9453125 0.00390625 69.9453125 0.00390625 72.5 0.0625 C73.34820313 0.06378906 74.19640625 0.06507813 75.0703125 0.06640625 C77.80782392 0.58142958 78.67404223 1.33946668 80.375 3.5 C87.51035615 17.7707123 83.48056729 43.84309577 83.55123901 59.73434448 C83.55867518 61.27173746 83.5692937 62.80911874 83.58328247 64.34646606 C83.75269762 84.79434409 83.75269762 84.79434409 79.5625 89.5625 C76.67202924 90.80127318 75.49324784 91.22517392 72.375 90.5 C68.68241718 88.01925127 65.8406593 85.32567737 64.72097778 80.93582153 C64.4706063 77.89806636 64.43157402 74.92669678 64.47265625 71.87890625 C64.46036484 70.77900864 64.44807343 69.67911102 64.43540955 68.54588318 C64.40374801 65.05073813 64.41993855 61.55770984 64.4375 58.0625 C64.42438723 55.68552732 64.40814551 53.3085697 64.38867188 50.93164062 C64.3478762 45.12077906 64.34630781 39.31091175 64.375 33.5 C63.63241943 34.58684082 62.88983887 35.67368164 62.12475586 36.79345703 C61.13402514 38.23995907 60.14321699 39.68640808 59.15234375 41.1328125 C58.66487671 41.84671143 58.17740967 42.56061035 57.6751709 43.29614258 C54.85849653 47.40403792 51.96992898 51.423778 48.9375 55.375 C45.4371958 60.11155127 43.21438765 64.92133087 41.375 70.5 C33.7023996 69.5885386 28.76824011 63.33950436 24.0078125 57.69140625 C20.03797698 52.51963091 16.48341434 47.1754876 13.1015625 41.609375 C12.73973877 41.01753418 12.37791504 40.42569336 12.00512695 39.81591797 C11.12662656 38.37837187 10.25055177 36.9393439 9.375 35.5 C9.35660568 36.0902446 9.33821136 36.6804892 9.31925964 37.28862 C9.12486878 43.43745547 8.91078405 49.58538206 8.68530273 55.7331543 C8.60375866 58.02692576 8.5272206 60.32088092 8.45581055 62.61499023 C8.3522317 65.91451233 8.23060524 69.21295255 8.10546875 72.51171875 C8.07720505 73.53585373 8.04894135 74.55998871 8.01982117 75.61515808 C7.78946891 81.17289072 7.50928741 85.36571259 3.375 89.5 C-2.89466292 89.03558052 -2.89466292 89.03558052 -5.5 87.125 C-7.98141469 83.54073433 -7.75161093 80.11969037 -7.75439453 75.90820312 C-7.75614685 75.24268433 -7.75789917 74.57716553 -7.75970459 73.89147949 C-7.76410969 71.6880432 -7.76118715 69.48468713 -7.7578125 67.28125 C-7.75848656 65.74247217 -7.75945744 64.20369445 -7.76071167 62.66491699 C-7.76218735 59.4335021 -7.76004059 56.20211481 -7.75537109 52.97070312 C-7.74971215 48.85664889 -7.75292909 44.74266045 -7.75894356 40.6286087 C-7.7625855 37.44559245 -7.76139337 34.26259134 -7.75881577 31.07957458 C-7.75815451 29.56473279 -7.7589465 28.04988956 -7.76129532 26.53504944 C-7.7849438 6.97261744 -7.7849438 6.97261744 -6.625 1.5 C-4.28486288 0.32993144 -2.61042048 0.16163594 0 0 Z " fill="#040404" transform="translate(923.625,766.5)"/>
<path d="M0 0 C8.73830634 5.04917701 16.74358492 12.36747351 20.0078125 22.16015625 C20.94245097 32.33436356 19.40529999 40.67154894 16.19921875 50.28515625 C15.00957612 53.90036314 14.4358442 57.38166949 14.0078125 61.16015625 C12.7496875 61.55203125 11.4915625 61.94390625 10.1953125 62.34765625 C5.47728707 63.90542452 1.0571503 65.91705468 -3.4140625 68.07421875 C-11.50049224 71.48032098 -23.0104912 72.05426962 -31.26953125 68.9140625 C-41.92754354 62.44152488 -49.07380283 52.91531025 -52.9921875 41.16015625 C-53.88138358 29.13414363 -52.78881141 20.34600208 -44.8671875 10.91015625 C-40.45759268 6.28226466 -35.7203833 2.96735154 -29.9921875 0.16015625 C-29.2496875 -0.21496094 -28.5071875 -0.59007812 -27.7421875 -0.9765625 C-19.8013044 -3.46936813 -7.68190185 -3.23844882 0 0 Z " fill="#030303" transform="translate(588.9921875,787.83984375)"/>
<path d="M0 0 C1.0725 -0.01675781 2.145 -0.03351562 3.25 -0.05078125 C4.1575 0.06910156 5.065 0.18898438 6 0.3125 C7.88102227 3.1340334 8.53157933 4.82429954 9.33203125 8.0390625 C9.69047119 9.45239868 9.69047119 9.45239868 10.05615234 10.89428711 C10.43054443 12.40067749 10.43054443 12.40067749 10.8125 13.9375 C13.31896148 23.80251592 16.04551203 33.57314805 19 43.3125 C21.25559103 41.05690897 21.85143503 39.4398932 22.953125 36.46484375 C23.50722046 34.97887695 23.50722046 34.97887695 24.07250977 33.46289062 C24.46108154 32.40263672 24.84965332 31.34238281 25.25 30.25 C25.64823975 29.17556641 26.04647949 28.10113281 26.45678711 26.99414062 C29.73001729 18.13180887 32.89326106 9.23441697 36 0.3125 C41.61 0.3125 47.22 0.3125 53 0.3125 C61.42807924 27.15143196 61.42807924 27.15143196 64.2109375 39.53125 C64.78795385 42.42529686 64.78795385 42.42529686 67 44.3125 C67.30292969 43.18714844 67.60585938 42.06179688 67.91796875 40.90234375 C69.97727396 33.3297093 72.08673732 25.80277865 74.625 18.375 C76.6629946 12.40888331 78.43826408 6.41977625 80 0.3125 C82.08268593 0.23123913 84.16628658 0.17319161 86.25 0.125 C87.99023438 0.07279297 87.99023438 0.07279297 89.765625 0.01953125 C93.22268407 0.33267066 94.51565563 0.96959108 97 3.3125 C96.33479146 7.15421167 95.24248478 10.63866932 93.890625 14.29296875 C93.2570105 16.02619385 93.2570105 16.02619385 92.6105957 17.79443359 C92.16159912 19.01727051 91.71260254 20.24010742 91.25 21.5 C88.27504955 29.65020797 85.44417678 37.76982046 83.3125 46.1875 C78.45799984 64.97605392 78.45799984 64.97605392 71.53125 70.16015625 C67.86066964 71.83117663 64.94876709 72.11672955 61 71.3125 C55.13367469 67.49256724 53.39041977 60.58366296 51 54.3125 C50.31164062 52.66894531 50.31164062 52.66894531 49.609375 50.9921875 C46.89069572 44.38298441 45.17793039 38.47824189 45 31.3125 C44.34 31.3125 43.68 31.3125 43 31.3125 C42.8448291 32.33621704 42.8448291 32.33621704 42.68652344 33.38061523 C41.86923124 36.87096445 40.511565 39.98396039 39.015625 43.22265625 C38.56941803 44.19663612 38.56941803 44.19663612 38.11419678 45.19029236 C37.48500434 46.55734042 36.85280294 47.92300714 36.21777344 49.28735352 C35.25415485 51.3660373 34.31047598 53.45304313 33.3671875 55.54101562 C32.75120627 56.87295436 32.13405688 58.2043536 31.515625 59.53515625 C31.23833557 60.15503922 30.96104614 60.77492218 30.675354 61.41358948 C28.76495179 65.44713597 26.72902087 67.86361839 23 70.3125 C19.8634508 70.99435852 18.05187637 70.90957395 15.23828125 69.3125 C9.9807022 65.29803617 7.48205337 60.32734266 5 54.3125 C4.61328125 53.38566406 4.2265625 52.45882812 3.828125 51.50390625 C-0.92430458 39.14450334 -3.79775543 26.13765123 -7 13.3125 C-7.19110352 12.60754395 -7.38220703 11.90258789 -7.57910156 11.17626953 C-8.25475317 8.18443404 -8.16933943 5.3606098 -8 2.3125 C-5.29921247 -0.38828753 -3.75964828 0.01355642 0 0 Z " fill="#040404" transform="translate(628,786.6875)"/>
<path d="M0 0 C3.35706971 2.0515426 5.84325758 4.05605587 8.375 7.0625 C8.375 7.7225 8.375 8.3825 8.375 9.0625 C6.51635261 10.75810814 4.67744274 12.28679947 2.6875 13.8125 C2.15705078 14.24949219 1.62660156 14.68648437 1.08007812 15.13671875 C-0.51171875 16.359375 -0.51171875 16.359375 -3.625 18.0625 C-6.1796875 17.4921875 -6.1796875 17.4921875 -8.625 16.0625 C-18.11843317 11.39359844 -27.07812906 8.69091339 -37.55859375 11.984375 C-45.21243809 15.48717449 -49.74599648 20.85207536 -52.890625 28.59765625 C-55.81878559 38.4256846 -52.55288214 47.99815661 -48.625 57.0625 C-45.07971259 63.35354413 -39.38745556 66.81814881 -32.625 69.0625 C-23.25131126 71.02346456 -16.38125684 67.03118579 -8.625 62.0625 C-7.27720224 61.08208225 -5.93717466 60.09010666 -4.625 59.0625 C-0.40064573 60.62707565 1.86558647 63.405926 4.375 67.0625 C3.94867317 72.87352005 0.56254448 76.31495113 -3.625 80.0625 C-14.53331883 87.11040729 -26.93846921 88.49774994 -39.625 87.0625 C-43.49664203 85.99257322 -46.38072317 84.40337926 -49.625 82.0625 C-50.47449219 81.46953125 -51.32398438 80.8765625 -52.19921875 80.265625 C-64.00146573 71.4448126 -68.44111132 62.38960264 -71.2109375 48.0234375 C-73.38895334 32.44856948 -69.37813655 17.97662165 -60.125 5.25 C-45.24916914 -10.98180472 -18.11557733 -8.24965882 0 0 Z " fill="#040404" transform="translate(804.625,769.9375)"/>
<path d="M0 0 C0.99902344 -0.020625 1.99804688 -0.04125 3.02734375 -0.0625 C9.36326857 -0.09562902 14.9774792 0.47159205 20.75 3.25 C23.27017426 5.77017426 23.04730377 6.76499849 23.0625 10.25 C23.07925781 11.136875 23.09601563 12.02375 23.11328125 12.9375 C22.99339844 13.700625 22.87351562 14.46375 22.75 15.25 C18.81695528 17.87202981 15.48374931 17.50148527 10.92578125 17.4453125 C10.06438034 17.4424826 9.20297943 17.43965271 8.31547546 17.43673706 C5.56434231 17.42554237 2.81353475 17.40043921 0.0625 17.375 C-1.80272967 17.36496927 -3.66796445 17.35584359 -5.53320312 17.34765625 C-10.1056951 17.32730693 -14.6774831 17.2881573 -19.25 17.25 C-19.25 25.17 -19.25 33.09 -19.25 41.25 C-17.09339844 41.22679687 -14.93679688 41.20359375 -12.71484375 41.1796875 C-10.60653267 41.16405223 -8.49822825 41.15192962 -6.38989258 41.14013672 C-4.93413359 41.1301315 -3.47839443 41.11652304 -2.02270508 41.09912109 C0.0799654 41.07462956 2.18236824 41.06346206 4.28515625 41.0546875 C5.547229 41.04421387 6.80930176 41.03374023 8.10961914 41.02294922 C17.08259424 41.58259424 17.08259424 41.58259424 19.75 44.25 C19.82205511 45.93608966 19.83386068 47.62500659 19.8125 49.3125 C19.80347656 50.23160156 19.79445313 51.15070312 19.78515625 52.09765625 C19.77355469 52.80792969 19.76195312 53.51820313 19.75 54.25 C8.21078601 59.3924758 -6.86517147 57.36417017 -19.25 57.25 C-19.23952637 57.96542969 -19.22905273 58.68085937 -19.21826172 59.41796875 C-19.17639444 62.69527601 -19.15057671 65.97252674 -19.125 69.25 C-19.10824219 70.37535156 -19.09148437 71.50070312 -19.07421875 72.66015625 C-18.99070071 86.94174033 -18.99070071 86.94174033 -23 92.8125 C-25.25 94.25 -25.25 94.25 -28.1875 94.3125 C-32.12765103 92.94550883 -33.68377773 91.55275131 -36.25 88.25 C-36.95272186 85.13638251 -36.87965029 82.1096796 -36.80859375 78.9296875 C-36.80721405 78.00949326 -36.80583435 77.08929901 -36.80441284 76.14122009 C-36.79185674 73.13494572 -36.74145712 70.13079555 -36.6875 67.125 C-36.66534409 65.05429019 -36.64411057 62.98357032 -36.6237793 60.9128418 C-36.54867546 54.69048448 -36.40963857 48.47070127 -36.25 42.25 C-36.22723999 41.31677917 -36.20447998 40.38355835 -36.18103027 39.42205811 C-36.05366255 34.38944958 -35.88975676 29.36051539 -35.66311646 24.33135986 C-35.59629724 22.82461399 -35.53640706 21.31754413 -35.48361206 19.8102417 C-35.40603895 17.73200254 -35.29632139 15.65816336 -35.17578125 13.58203125 C-35.11817627 12.42421143 -35.06057129 11.2663916 -35.0012207 10.07348633 C-34.25 7.25 -34.25 7.25 -31.8894043 5.41137695 C-28.8663188 4.08117459 -25.98037548 3.31183217 -22.75 2.625 C-21.6465625 2.38523437 -20.543125 2.14546875 -19.40625 1.8984375 C-18.3646875 1.68445313 -17.323125 1.47046875 -16.25 1.25 C-15.4672168 1.07581543 -14.68443359 0.90163086 -13.87792969 0.72216797 C-9.27896164 -0.10414234 -4.66110138 0.02369048 0 0 Z " fill="#060606" transform="translate(466.25,763.75)"/>
<path d="M0 0 C2.3125 0.625 2.3125 0.625 4 2 C6.02875572 6.78652066 6.30729492 11.27940277 6.32226562 16.40454102 C6.33219543 17.22643921 6.34212524 18.0483374 6.35235596 18.8951416 C6.38142865 21.59809781 6.39516982 24.30081978 6.40625 27.00390625 C6.41776175 28.88907371 6.4292771 30.77424115 6.4407959 32.65940857 C6.46176358 36.60424891 6.47348475 40.54900831 6.48046875 44.49389648 C6.49146433 49.5471817 6.53959359 54.59939618 6.59641266 59.6523447 C6.6336555 63.54285323 6.6440757 67.4331026 6.6471405 71.32377434 C6.65319102 73.18693878 6.66924011 75.0500988 6.69551086 76.91308784 C6.72963816 79.51784345 6.725877 82.11996491 6.71289062 84.72485352 C6.73132019 85.49226364 6.74974976 86.25967377 6.76873779 87.05033875 C6.72327519 89.96220607 6.5651855 92.29460561 4.70439148 94.61701775 C2.34463853 96.67995906 0.67997767 97.96600112 -2.5 98.125 C-8.84527842 95.26962471 -8.84527842 95.26962471 -11 92 C-11.8803294 87.22665949 -11.7217134 82.46292547 -11.62109375 77.62890625 C-11.61241661 76.18661259 -11.6062839 74.74430163 -11.60255432 73.30198669 C-11.58532602 69.4941701 -11.53133308 65.687702 -11.47027588 61.88037109 C-11.41666411 58.08901087 -11.40108212 54.2975165 -11.38085938 50.50585938 C-11.32635151 42.00216183 -11.18356326 33.50181402 -11 25 C-10.97609192 23.81025574 -10.95218384 22.62051147 -10.92755127 21.39471436 C-10.85728673 18.27132225 -10.76483342 15.1497485 -10.66015625 12.02734375 C-10.63940536 11.13600235 -10.61865448 10.24466095 -10.59727478 9.3263092 C-10.35436238 3.46405996 -10.35436238 3.46405996 -8.68382263 1.27638245 C-5.9083578 -0.82749389 -3.35700656 -0.29447426 0 0 Z " fill="#040404" transform="translate(515,760)"/>
<path d="M0 0 C5.80202486 5.14270385 10.22633933 9.81183077 11.125 17.75 C10.2897668 25.96312648 5.86073586 31.05218812 -0.375 36.1875 C-4.34579727 38.83469818 -8.62607255 39.05402366 -13.25 38.4375 C-19.50840154 35.30829923 -24.39012081 30.00808383 -27.125 23.5625 C-28.5173846 19.16460231 -29.34488719 14.98366201 -28.25 10.4375 C-22.42780569 0.46919762 -10.92578624 -5.25278185 0 0 Z " fill="#FAFAFA" transform="translate(581.25,802.5625)"/>
<path d="M0 0 C24.01311133 -0.6656612 24.01311133 -0.6656612 30.9609375 4.44140625 C33.42616584 6.84528275 34.82512348 8.76274865 35.3125 12.2109375 C35.00730226 17.79987102 32.95943767 22.07257935 29 26 C22.5647469 30.1969042 15.54810018 30.12874425 8.0625 30.0625 C7.37865234 30.05798828 6.69480469 30.05347656 5.99023438 30.04882812 C4.32678396 30.0371956 2.6633795 30.01926694 1 30 C-0.09911549 26.70265354 -0.1139456 24.27041255 -0.09765625 20.80078125 C-0.09443359 19.59228516 -0.09121094 18.38378906 -0.08789062 17.13867188 C-0.07951172 15.87603516 -0.07113281 14.61339844 -0.0625 13.3125 C-0.05573242 11.40114258 -0.05573242 11.40114258 -0.04882812 9.45117188 C-0.03702873 6.30073436 -0.02056597 3.15039051 0 0 Z " fill="#FBFBFB" transform="translate(843,779)"/>
</svg>
